<?xml version="1.0" standalone="no"?>
<!DOCTYPE svg PUBLIC "-//W3C//DTD SVG 20010904//EN"
 "http://www.w3.org/TR/2001/REC-SVG-20010904/DTD/svg10.dtd">
<svg version="1.0" xmlns="http://www.w3.org/2000/svg"
 width="486.000000pt" height="709.000000pt" viewBox="0 0 486.000000 709.000000"
 preserveAspectRatio="xMidYMid meet">

<g transform="translate(0.000000,709.000000) scale(0.100000,-0.100000)"
fill="#000000" stroke="none">
<path d="M1950 6809 c-559 -33 -1041 -128 -1274 -252 -82 -44 -164 -121 -193
-182 l-23 -50 0 -1385 c0 -1317 1 -1389 19 -1476 86 -417 444 -777 981 -988
180 -71 428 -129 665 -156 117 -13 435 -13 566 0 856 86 1528 551 1650 1144
18 87 19 159 19 1476 l0 1385 -23 50 c-29 61 -111 138 -193 182 -238 127 -709
219 -1299 253 -195 11 -696 11 -895 -1z m1000 -309 c321 -25 563 -61 775 -115
137 -34 267 -83 310 -117 l25 -20 -2 -1351 c-3 -1262 -4 -1356 -21 -1412 -157
-529 -883 -900 -1707 -872 -200 7 -332 25 -510 68 -462 113 -832 364 -980 664
-81 165 -74 36 -78 1549 -2 1079 0 1352 10 1364 19 23 143 78 241 106 250 73
607 124 1020 146 188 10 735 4 917 -10z"/>
<path d="M2332 6000 c-130 -79 -74 -280 78 -280 85 0 150 65 150 150 0 85 -65
150 -150 150 -27 0 -58 -8 -78 -20z"/>
<path d="M1332 5200 c-18 -11 -41 -34 -52 -52 -19 -32 -20 -52 -20 -693 0
-553 2 -670 15 -718 50 -191 210 -352 401 -402 87 -23 1381 -23 1468 0 144 38
283 147 350 275 67 127 66 113 66 845 0 641 -1 661 -20 693 -11 18 -34 41 -52
52 -32 20 -53 20 -1078 20 -1025 0 -1046 0 -1078 -20z m1926 -837 c-3 -550 -3
-559 -25 -598 -25 -47 -74 -95 -123 -121 -33 -18 -71 -19 -700 -19 -629 0
-667 1 -700 19 -49 26 -98 74 -123 121 -22 39 -22 48 -25 598 l-3 557 851 0
851 0 -3 -557z"/>
<path d="M1210 2048 c-54 -28 -82 -72 -82 -132 0 -62 21 -95 109 -171 264
-227 567 -369 901 -421 147 -23 403 -23 546 0 337 55 635 194 899 421 88 76
109 109 109 171 0 61 -28 104 -84 132 -74 37 -107 27 -217 -68 -295 -252 -608
-370 -981 -370 -372 0 -687 119 -978 368 -84 71 -121 92 -166 92 -7 0 -32 -10
-56 -22z"/>
<path d="M629 1487 c-65 -43 -89 -139 -50 -203 11 -18 59 -67 108 -110 397
-349 846 -554 1388 -636 121 -18 549 -18 670 0 542 82 991 287 1388 636 105
92 127 125 127 186 0 84 -65 150 -148 150 -55 0 -73 -10 -149 -81 -334 -311
-761 -514 -1233 -585 -158 -25 -482 -25 -640 0 -472 71 -899 274 -1233 585
-34 32 -72 63 -84 70 -37 19 -106 13 -144 -12z"/>
</g>
</svg>
